<?xml version="1.0" standalone="no"?>
<!DOCTYPE svg PUBLIC "-//W3C//DTD SVG 20010904//EN"
 "http://www.w3.org/TR/2001/REC-SVG-20010904/DTD/svg10.dtd">
<svg version="1.0" xmlns="http://www.w3.org/2000/svg"
 width="1600.000000pt" height="1317.000000pt" viewBox="0 0 1600.000000 1317.000000"
 preserveAspectRatio="xMidYMid meet">

<g transform="translate(0.000000,1317.000000) scale(0.100000,-0.100000)"
fill="#ffffff" stroke="none">
<path d="M3945 9065 l-25 -24 0 -1601 0 -1601 25 -24 24 -25 1519 0 1519 0
-23 -47 c-24 -46 -24 -49 -24 -378 l0 -331 26 -52 c28 -57 83 -107 176 -162
l59 -35 -1 -349 c0 -333 0 -351 20 -392 88 -181 504 -337 1143 -428 411 -59
768 -80 1256 -73 1155 16 2048 227 2167 513 11 26 14 104 14 371 0 321 -1 339
-21 380 -27 56 -98 117 -181 156 -52 24 -66 36 -60 47 4 8 8 150 10 315 2 220
6 301 15 307 7 4 41 17 77 29 187 62 344 165 392 258 l28 53 0 332 c0 381 0
378 -90 459 -67 60 -183 117 -327 159 -91 27 -111 36 -105 48 12 26 15 629 2
687 -52 238 -565 390 -1565 463 -82 6 -331 14 -552 17 l-403 6 0 449 0 449
-25 24 -24 25 -2511 0 -2511 0 -24 -25z m4945 -524 l0 -398 -37 -7 c-21 -3
-55 -6 -75 -6 l-38 0 0 155 c0 152 -1 156 -25 180 -14 15 -36 25 -52 25 -116
0 -223 107 -223 223 0 16 -10 38 -25 52 l-24 25 -1911 0 -1911 0 -24 -25 c-14
-13 -25 -36 -25 -51 0 -113 -111 -224 -224 -224 -15 0 -38 -11 -51 -25 l-25
-24 0 -351 0 -351 25 -24 c13 -14 36 -25 50 -25 14 0 37 11 50 25 l25 24 0
306 c0 237 3 305 13 305 30 0 126 55 171 98 44 42 106 148 106 180 0 9 371 12
1820 12 1449 0 1820 -3 1820 -12 0 -32 62 -138 106 -180 45 -43 141 -98 172
-98 9 0 12 -29 12 -113 l0 -113 -162 -13 c-448 -33 -816 -92 -1094 -176 -17
-5 -24 1 -40 37 -103 229 -336 423 -589 488 -477 124 -966 -164 -1096 -645
-32 -115 -32 -335 0 -450 88 -324 340 -570 668 -652 103 -26 323 -23 428 6 91
24 199 73 274 123 48 33 50 35 33 53 -9 10 11 -6 45 -37 69 -62 201 -132 333
-176 62 -21 85 -33 84 -45 0 -10 -1 -35 -2 -57 l-2 -40 -1405 0 c-1117 0
-1405 3 -1405 13 0 30 -55 126 -98 171 -42 44 -148 106 -179 106 -10 0 -13 73
-13 330 l0 331 -25 24 c-13 14 -36 25 -50 25 -14 0 -37 -11 -50 -25 l-25 -24
0 -376 0 -376 25 -24 c14 -15 36 -25 52 -25 114 0 223 -110 223 -224 0 -15 11
-38 25 -51 l24 -25 1451 0 1450 0 0 -75 0 -75 -1700 0 -1700 0 0 1350 0 1350
2410 0 2410 0 0 -399z m-2263 -217 c154 -32 277 -100 389 -216 70 -73 137
-171 149 -218 5 -22 0 -28 -38 -48 -58 -31 -125 -97 -148 -147 -17 -36 -19
-71 -19 -363 l0 -322 -67 -44 c-88 -56 -169 -90 -265 -110 -519 -107 -989 362
-882 882 83 404 480 669 881 586z m3451 -378 c718 -59 1226 -176 1309 -303 13
-19 11 -24 -18 -58 -101 -115 -572 -251 -1109 -319 -338 -44 -474 -51 -995
-51 -522 0 -647 6 -995 51 -418 53 -813 150 -1003 245 -63 32 -137 94 -137
114 0 27 83 84 175 119 299 114 716 177 1460 220 171 10 1133 -3 1313 -18z
m-2764 -647 l71 -28 3 -201 2 -202 -26 6 c-52 13 -159 72 -196 107 l-38 36 0
185 0 186 57 -31 c31 -17 89 -43 127 -58z m4086 -100 l0 -180 -32 -30 c-33
-29 -196 -119 -217 -119 -8 0 -11 58 -9 201 l3 200 70 28 c39 15 93 39 120 54
28 14 53 26 58 27 4 0 7 -81 7 -181z m-3612 -35 c22 -4 22 -5 22 -209 0 -157
-3 -205 -12 -205 -7 0 -64 12 -125 27 l-113 27 0 207 0 206 103 -24 c56 -13
112 -26 125 -29z m3175 -355 c-10 -9 -209 -59 -234 -59 -18 0 -19 12 -19 204
l0 204 78 17 c42 9 100 22 127 29 l50 12 3 -200 c1 -110 -1 -203 -5 -207z
m-2823 298 l95 -13 3 -212 2 -213 -32 5 c-18 3 -62 10 -98 16 -36 6 -80 13
-97 16 l-33 5 0 210 0 210 33 -6 c17 -3 75 -11 127 -18z m2400 -186 c0 -241
16 -211 -125 -231 -44 -6 -90 -13 -103 -16 l-22 -4 2 212 3 213 115 16 c63 9
118 17 123 18 4 0 7 -93 7 -208z m-1877 132 c4 -2 7 -99 7 -215 l0 -211 -57 6
c-32 4 -91 9 -130 13 l-73 7 0 209 0 210 123 -7 c67 -4 125 -9 130 -12z m1457
-192 l0 -208 -57 -6 c-32 -4 -91 -9 -131 -13 l-72 -7 2 214 3 214 70 6 c39 3
96 6 128 7 l57 2 0 -209z m-942 -38 l2 -213 -102 0 c-57 0 -133 3 -170 7 l-68
6 0 209 0 208 168 -2 167 -3 3 -212z m512 8 l0 -208 -61 -7 c-34 -3 -111 -6
-170 -6 l-109 0 0 215 0 215 170 0 170 0 0 -209z m1910 -68 c205 -61 326 -134
301 -182 -52 -97 -423 -225 -870 -300 -749 -126 -1656 -132 -2421 -15 -408 62
-771 169 -905 265 -41 29 -61 56 -51 66 2 2 84 -12 182 -31 306 -60 597 -94
994 -117 257 -15 865 -6 1120 15 612 52 1104 159 1371 296 108 56 103 56 279
3z m-3897 -432 c28 -16 85 -42 125 -57 l72 -28 0 -203 0 -203 -57 26 c-84 36
-144 73 -175 107 l-28 29 0 179 c0 98 2 179 5 179 3 0 29 -13 58 -29z m4207
-154 l0 -183 -32 -34 c-27 -27 -198 -120 -222 -120 -3 0 -6 91 -6 203 l0 202
73 28 c39 15 95 41 122 56 28 16 53 29 58 30 4 1 7 -81 7 -182z m-3700 -15
l115 -28 3 -199 c1 -109 -1 -202 -5 -206 -5 -4 -63 6 -130 23 l-123 30 0 204
c0 157 3 204 13 204 6 -1 64 -13 127 -28z m3270 -177 l0 -204 -37 -10 c-43
-11 -144 -36 -185 -45 l-28 -6 0 208 0 209 88 18 c48 10 96 22 107 26 56 22
55 27 55 -196z m-2879 106 c30 -5 75 -12 102 -16 l47 -6 0 -210 0 -210 -52 6
c-29 4 -84 12 -123 18 l-70 12 -3 208 -2 207 23 0 c13 0 48 -4 78 -9z m2457
-198 l-3 -208 -105 -17 c-58 -9 -115 -17 -127 -17 l-23 -1 0 209 0 209 88 12
c48 6 92 13 97 15 6 2 25 4 43 4 l32 1 -2 -207z m-3588 158 l0 -40 -57 -16
c-32 -8 -82 -24 -111 -35 -53 -20 -87 -20 -1643 -20 l-1589 0 0 75 0 75 1700
0 1700 0 0 -39z m1648 -17 l62 -6 0 -211 0 -210 -116 7 c-64 4 -123 10 -130
13 -11 4 -14 46 -14 215 l0 210 68 -6 c37 -4 95 -9 130 -12z m1512 -193 c0
-244 19 -216 -152 -227 l-108 -7 0 211 0 210 78 7 c42 3 88 7 102 9 14 2 37 4
53 5 l27 1 0 -209z m-997 169 l57 0 0 -210 0 -210 -170 0 -170 0 0 217 0 216
113 -6 c61 -4 138 -7 170 -7z m567 -205 l0 -215 -170 0 -170 0 0 210 0 209 98
4 c53 1 130 4 170 5 l72 2 0 -215z m-2597 1 c128 -90 295 -157 549 -220 803
-199 1982 -227 2918 -70 80 13 154 27 165 29 11 3 4 -3 -15 -14 -103 -56 -417
-141 -705 -190 -936 -159 -2151 -120 -2928 93 -232 64 -417 149 -447 207 -19
34 12 64 117 115 65 32 239 92 271 93 7 1 41 -19 75 -43z m-410 -415 c28 -16
85 -41 125 -56 l72 -28 0 -199 c0 -173 -2 -198 -16 -198 -30 0 -162 68 -202
105 l-42 37 0 184 c0 101 2 184 5 184 3 0 29 -13 58 -29z m4207 -152 l0 -181
-32 -30 c-37 -35 -92 -68 -170 -102 l-58 -26 0 204 0 204 58 21 c31 12 86 38
122 56 36 19 68 34 73 35 4 0 7 -81 7 -181z m-3761 -3 c31 -8 82 -20 114 -26
l57 -11 0 -210 c0 -196 -1 -210 -17 -205 -10 3 -66 17 -125 32 l-108 26 0 204
c0 142 3 204 11 204 6 0 37 -6 68 -14z m3331 -190 l0 -204 -122 -30 c-68 -16
-126 -28 -130 -25 -5 2 -8 94 -8 204 0 162 3 201 14 205 21 8 208 51 229 53
16 1 17 -15 17 -203z m-2737 85 c4 -1 7 -95 7 -211 0 -115 -3 -210 -7 -210
-14 0 -208 30 -230 35 -23 5 -23 6 -23 209 0 111 2 205 5 207 2 3 57 -3 122
-13 65 -9 121 -17 126 -17z m2303 -377 c-2 -6 -44 -16 -93 -23 -48 -6 -103
-14 -120 -17 l-33 -6 0 211 c0 162 3 211 13 212 6 1 62 8 122 18 l110 16 3
-200 c1 -110 1 -204 -2 -211z m-1913 340 l47 -6 0 -210 0 -211 -102 7 c-57 4
-115 9 -130 12 l-28 6 0 210 0 210 83 -6 c45 -4 103 -9 130 -12z m1497 -193
l0 -209 -32 -5 c-18 -4 -77 -9 -130 -13 l-98 -7 0 211 0 211 53 5 c66 8 121
12 170 14 l37 2 0 -209z m-1047 172 l107 -6 0 -209 0 -208 -154 0 c-85 0 -161
3 -170 6 -14 5 -16 34 -16 215 l0 209 63 0 c35 0 112 -3 170 -7z m617 -202 c0
-181 -2 -210 -16 -215 -9 -3 -85 -6 -170 -6 l-154 0 0 210 0 209 68 4 c37 2
113 4 170 5 l102 2 0 -209z m1845 -56 c39 -18 81 -45 94 -59 21 -22 23 -29 13
-50 -53 -116 -550 -268 -1112 -340 -572 -74 -1282 -79 -1885 -15 -413 44 -831
135 -1065 233 -82 35 -179 98 -187 123 -2 6 33 -1 87 -17 234 -74 644 -147
1005 -180 362 -32 939 -41 1280 -20 540 34 1027 113 1350 221 94 32 256 105
290 132 23 19 37 16 130 -28z m-4099 -356 c19 -11 71 -36 117 -54 l82 -34 3
-206 2 -205 -57 26 c-77 33 -142 72 -170 100 -22 22 -23 29 -23 209 0 102 3
185 6 185 4 0 22 -9 40 -21z m4214 -164 c0 -180 -1 -187 -23 -209 -28 -28 -93
-67 -170 -100 l-57 -26 2 205 3 206 83 34 c46 18 97 43 115 54 18 10 35 20 40
20 4 1 7 -82 7 -184z m-3700 -11 c63 -14 116 -27 118 -28 1 -2 1 -96 0 -208
l-3 -206 -125 32 -125 31 -3 203 c-2 159 0 202 10 202 7 0 65 -12 128 -26z
m3278 -176 l-3 -203 -125 -31 -125 -32 -3 206 c-1 112 -1 206 1 208 5 5 211
52 235 53 l22 1 -2 -202z m-2863 102 c44 -6 92 -13 108 -16 l27 -6 0 -209 c0
-115 -3 -209 -6 -209 -10 0 -207 30 -231 36 -23 4 -23 5 -23 214 l0 210 23 -4
c12 -3 58 -10 102 -16z m2435 -190 c0 -209 0 -210 -22 -215 -21 -5 -222 -35
-233 -35 -8 0 -6 420 3 421 7 1 231 35 245 38 4 0 7 -93 7 -209z m-1907 134
l27 -6 0 -210 0 -211 -82 7 c-46 4 -102 9 -125 12 l-43 6 0 210 0 210 98 -7
c53 -3 109 -9 125 -11z m1477 -193 l0 -209 -42 -6 c-24 -3 -80 -8 -125 -12
l-83 -7 0 211 0 211 33 6 c32 5 94 10 175 13 l42 2 0 -209z m-1001 173 l61 -7
0 -208 0 -209 -124 0 c-68 0 -144 3 -170 6 l-46 7 0 208 0 209 109 0 c59 0
136 -3 170 -6z m581 -203 l0 -208 -46 -7 c-26 -3 -102 -6 -170 -6 l-124 0 0
209 0 210 43 4 c23 2 99 4 170 5 l127 2 0 -209z"/>
<path d="M4895 7825 c-51 -18 -120 -91 -134 -141 -25 -91 -7 -162 59 -226 95
-92 217 -91 310 2 93 93 93 216 0 311 -64 67 -146 85 -235 54z m130 -160 c14
-13 25 -36 25 -50 0 -33 -42 -75 -75 -75 -33 0 -75 42 -75 75 0 33 42 75 75
75 14 0 37 -11 50 -25z"/>
</g>
</svg>
